{"title":"Regression.2015.BRRip.480p.x264.AAC-VYTO [P2PDL]","uid":13334607,"size":402193313,"categoryP":"video","categoryS":"movies","magnet":"?xt=urn:btih:afd0b0cd59c5bd29e0aeb0725486320d81b76d6f&amp;dn=Regression.2015.BRRip.480p.x264.AAC-VYTO+%5BP2PDL%5D&amp;tr=udp%3A%2F%2Ftracker.leechers-paradise.org%3A6969&amp;tr=udp%3A%2F%2Fzer0day.ch%3A1337&amp;tr=udp%3A%2F%2Fopen.demonii.com%3A1337&amp;tr=udp%3A%2F%2Ftracker.coppersurfer.tk%3A6969&amp;tr=udp%3A%2F%2Fexodus.desync.com%3A6969","seeders":1,"leechers":1,"uploader":"VYTOP2PDL","files":7,"time":1453972213,"description":"____    ____ ____    ____ .___________.  ______   \r\n     /   /      /   / |           | /  __    \r\n    /   /      /   /  `---|  |----`|  |  |  | \r\n        /     _    _/       |  |     |  |  |  | \r\n       /        |  |         |  |     |  `--'  | \r\n    __/         |__|         |__|      ______/  \r\n                                                  \r\nPresenting Small Encodes with quality for years!\r\n                                                                                                   \r\n                                                                                                   \r\n\r\n\r\nRegression.2015.BRRip.480p.x264.AAC-VYTO\r\n\r\n\r\nGenre: Crime, Drama, Mystery  \nhttp://www.imdb.com/title/tt3319920/\r\n\r\n\r\n\r\nFormat                                   : MPEG-4\r\nFile size                                : 376 MiB\r\nDuration                                 : 1h 46mn\r\nOverall bit rate                         : 496 Kbps\r\n\r\nVideo\r\nFormat                                   : AVC\r\nBit rate                                 : 461 Kbps\r\nWidth                                    : 720 pixels\r\nHeight                                   : 304 pixels\r\nDisplay aspect ratio                     : 2.35:1\r\nFrame rate mode                          : Constant\r\nFrame rate                               : 23.976 fps\r\nBit depth                                : 8 bits\r\nStream size                              : 350 MiB (93%)\r\nWriting library                          : x264\r\n\r\nAudio\r\nFormat                                   : AAC\r\nBit rate mode                            : Variable\r\nBit rate                                 : 32.0 Kbps\r\nChannel(s)                               : 2 channels\r\nChannel positions                        : Front: L R\r\nSampling rate                            : 48.0 KHz \r\nStream size                              : 24.3 MiB (6%)\r\nLanguage                                 : English\r\n\r\nSubtitle                                 : Yes (English)\r\n\r\nScreen Shots: (Click to view)\r\n \nhttp://ititli.com/Ob \nhttp://ititli.com/Oz \nhttp://ititli.com/OI \nhttp://ititli.com/OO \nhttp://ititli.com/X99 \nhttp://ititli.com/X9X \nhttp://ititli.com/X9q \nhttp://ititli.com/X9r \nhttp://ititli.com/X91 \nhttp://ititli.com/X9T \nhttp://ititli.com/X9W \nhttp://ititli.com/X9g\r\n\r\n----------------------------------------------------------------------------------------------------\r\n\r\n\r\nEncoder Notes: Looking For Early Access To Anything You Can Provide WEBDL, DVDScr, DVDR, BluRay,\r\nDirect Audio, Music Releases and Seedboxes. If You Got anything to offer please contact us.\r\n\r\nSupport us by donating BC - 1FgwdzPsd1y25Gea8wP1qni35uGCtmkRCD\r\n\r\nSend some love!\r\nFind us and join us!","torrent":{"xt":"urn:btih:afd0b0cd59c5bd29e0aeb0725486320d81b76d6f","amp;dn":"Regression.2015.BRRip.480p.x264.AAC-VYTO+%5BP2PDL%5D","amp;tr":["udp%3A%2F%2Ftracker.leechers-paradise.org%3A6969","udp%3A%2F%2Fzer0day.ch%3A1337","udp%3A%2F%2Fopen.demonii.com%3A1337","udp%3A%2F%2Ftracker.coppersurfer.tk%3A6969","udp%3A%2F%2Fexodus.desync.com%3A6969"],"infoHash":"afd0b0cd59c5bd29e0aeb0725486320d81b76d6f","infoHashBuffer":{"type":"Buffer","data":[175,208,176,205,89,197,189,41,224,174,176,114,84,134,50,13,129,183,109,111]},"announce":[],"urlList":[]}}